<svg width="342" height="337" viewBox="0 0 342 337" fill="none" xmlns="http://www.w3.org/2000/svg">
<g clip-path="url(#clip0_1_226)">
<path d="M291.815 201.268C356.196 222.939 281.609 62.6323 217.228 40.9546C176.992 27.411 99.6762 55.1711 63.2448 82.6409C41.3859 99.1202 34.2515 115.5 58.6669 122.784" fill="#0C113A"/>
<path d="M309.359 200.585C312.385 191.618 255.705 164.453 182.761 139.909C109.818 115.366 48.2328 102.738 45.2076 111.705C42.1824 120.672 98.8625 147.837 171.806 172.38C244.749 196.924 306.334 209.551 309.359 200.585Z" fill="#0C113A"/>
<path d="M217.089 41.1526C196.631 34.2653 166.581 38.0718 137.198 47.07C147.265 65.2183 169.494 82.4694 198.15 92.1142C227.764 102.076 256.837 101.442 275.842 92.2527C258.29 68.2068 237.191 47.9211 217.083 41.1526H217.089Z" fill="#E74525"/>
<path d="M171 0.000610352C76.5622 0.000610352 0 75.4436 0 168.501C0 261.558 76.5622 337.001 171 337.001C265.438 337.001 342 261.558 342 168.501C342 75.4436 265.438 0.000610352 171 0.000610352ZM171 321.96C84.9913 321.96 15.2662 253.252 15.2662 168.501C15.2662 83.7492 84.9913 15.0483 171 15.0483C257.009 15.0483 326.734 83.7558 326.734 168.507C326.734 253.259 257.009 321.966 171 321.966V321.96Z" fill="#0C113A"/>
<path d="M149.273 227.992C144.808 237.274 140.329 245.078 136.147 251.629C135.11 253.272 134.047 254.809 133.062 256.313C132.56 257.058 132.091 257.804 131.602 258.51C131.107 259.209 130.618 259.902 130.136 260.575C129.178 261.92 128.286 263.227 127.395 264.447C126.49 265.654 125.624 266.809 124.798 267.904C123.187 270.14 121.588 272.027 120.234 273.802C118.893 275.583 117.598 277.074 116.521 278.439C114.381 281.19 112.756 283.116 111.798 284.548C109.863 287.391 110.351 288.005 112.584 286.989C113.701 286.481 115.253 285.564 117.149 284.317C119.005 283.031 121.159 281.368 123.563 279.449C128.24 275.497 133.736 270.358 138.955 264.52C144.167 258.681 149.207 252.249 153.428 246.16C157.59 240.038 161.085 234.352 163.377 230.13C164.526 228.019 165.491 226.33 166.092 225.136C166.693 223.935 167.023 223.275 167.023 223.275L168.972 218.466L170.749 213.591L171.628 211.15L172.427 208.683L174.012 203.742L175.419 198.741C175.651 197.91 175.902 197.079 176.113 196.241L176.721 193.714L177.923 188.661C178.293 186.972 178.636 185.283 178.967 183.601C181.583 170.123 183.095 156.956 186.035 144.488C188.961 132.019 193.169 119.94 199.623 109.418C202.834 104.193 206.632 99.3247 210.959 95.1752C215.286 91.0455 220.168 87.6283 225.32 85.6228L220.207 72.2705C216.217 73.8208 212.544 75.8659 209.189 78.1946C205.826 80.5233 202.768 83.1423 199.954 85.946C194.339 91.5535 189.695 97.88 185.857 104.596C182.038 111.285 179.02 118.311 176.589 125.436C174.158 132.56 172.308 139.797 170.835 147.034C167.882 161.488 166.409 175.658 163.132 189.004L162.531 191.517L162.227 192.777L161.877 194.024L160.477 199.005C160.001 200.667 159.433 202.297 158.911 203.946L158.119 206.413C157.841 207.231 157.531 208.036 157.24 208.854C156.645 210.477 156.071 212.107 155.456 213.723L153.501 218.532C152.873 220.148 152.14 221.712 151.433 223.295L150.37 225.663L149.835 226.851L149.26 228.019L149.273 227.992Z" fill="#E74525"/>
<path d="M80.5654 179.583C74.9438 188.153 70.8019 196.267 67.9746 203.643C66.5543 207.33 65.504 210.853 64.665 214.119C64.2885 215.768 63.8988 217.338 63.6477 218.868C63.509 219.634 63.3703 220.373 63.2514 221.105C63.1523 221.837 63.0598 222.556 62.9673 223.249C62.2671 228.843 62.353 233.395 62.6436 236.905C62.7361 237.782 62.822 238.6 62.9013 239.359C63.0004 240.111 63.1391 240.803 63.2514 241.443C63.3703 242.077 63.4826 242.657 63.6015 243.178C63.7204 243.7 63.8657 244.161 63.9912 244.57C65.0218 247.842 65.7418 247.717 66.2438 245.415C66.3694 244.841 66.4817 244.128 66.5807 243.297C66.7063 242.466 66.8516 241.516 66.9771 240.467C67.0828 239.418 67.2876 238.264 67.4593 237.03C67.6047 235.796 67.8887 234.477 68.1133 233.098C68.219 232.405 68.3842 231.7 68.5427 230.981C68.6946 230.261 68.8532 229.529 69.0183 228.784C69.4147 227.299 69.7516 225.756 70.247 224.205C71.1388 221.085 72.3014 217.872 73.649 214.686C74.2964 213.09 75.0627 211.513 75.7894 209.943C76.5821 208.386 77.3483 206.836 78.2005 205.331C79.8652 202.31 81.6356 199.414 83.439 196.736C86.9995 191.353 90.6196 186.807 93.2619 183.561C95.9175 180.322 97.6218 178.383 97.6218 178.383C104.743 168.619 112.69 159.291 120.709 149.693C128.755 140.021 136.583 129.921 143.341 118.885C146.684 113.343 149.795 107.597 152.371 101.541C153.686 98.5264 154.822 95.4127 155.873 92.2593C156.857 89.0862 157.782 85.88 158.429 82.5815C159.836 76.0307 160.358 69.2425 160.107 62.4937C159.783 55.745 158.594 49.0491 156.665 42.6302L143.903 46.4697L144.51 48.6533L144.814 49.7484L145.065 50.8501L145.567 53.0535L145.957 55.2767L146.155 56.3915L146.294 57.513L146.565 59.7494C146.651 61.2469 146.822 62.7444 146.816 64.2485C147.001 70.2584 146.274 76.3012 144.854 82.2517C142 94.1724 136.22 105.565 129.218 116.292C125.723 121.675 121.872 126.893 117.862 132.039C113.833 137.191 109.645 142.185 105.324 147.324C96.7564 157.576 88.1159 168.059 80.572 179.603L80.5654 179.583Z" fill="#E74525"/>
<path d="M207.861 217.938C204.631 227.906 202.715 237.01 201.876 245.045C201.453 249.063 201.341 252.81 201.367 256.26C201.427 257.989 201.447 259.638 201.598 261.214C201.665 262.006 201.717 262.771 201.79 263.523C201.883 264.275 201.975 265.008 202.068 265.72C202.821 271.433 204.076 275.913 205.265 279.317C205.582 280.161 205.873 280.946 206.15 281.678C206.441 282.404 206.751 283.05 207.029 283.651C207.583 284.851 208.079 285.815 208.554 286.553C210.411 289.535 211.098 289.225 211.005 286.817C210.985 286.217 210.913 285.485 210.8 284.634C210.715 283.776 210.609 282.8 210.464 281.724C210.193 279.574 209.909 276.994 209.704 274.131C209.631 273.419 209.618 272.68 209.585 271.928C209.559 271.176 209.506 270.411 209.486 269.626C209.493 268.056 209.426 266.439 209.512 264.77C209.585 261.445 209.895 257.962 210.391 254.459C210.609 252.704 210.952 250.95 211.263 249.195C211.639 247.447 211.983 245.705 212.426 243.99C213.271 240.559 214.242 237.221 215.312 234.088C217.387 227.814 219.732 222.345 221.462 218.42C223.206 214.501 224.362 212.126 224.362 212.126C228.742 200.555 234.04 189.189 239.331 177.545C244.629 165.816 249.61 153.737 253.303 141.037C255.113 134.678 256.639 128.18 257.583 121.517C258.072 118.192 258.389 114.821 258.588 111.437C258.733 108.046 258.799 104.635 258.588 101.218C258.27 94.3835 257.055 87.5358 255.086 80.9191C253.058 74.3155 250.172 67.9824 246.631 62.1045L234.945 69.1435L236.101 71.1555L236.682 72.1583L237.211 73.1874L238.268 75.2457L239.219 77.3567L239.695 78.4122L240.117 79.4875C240.395 80.2066 240.686 80.9191 240.956 81.6381C241.432 83.1027 241.974 84.5474 242.357 86.0383C244.074 91.9558 244.913 98.1438 245.059 104.411C245.343 116.978 242.667 129.783 238.644 142.278C236.643 148.538 234.258 154.733 231.702 160.901C229.125 167.082 226.351 173.145 223.497 179.392C217.842 191.841 212.181 204.52 207.854 217.938H207.861Z" fill="#E74525"/>
</g>
<defs>
<clipPath id="clip0_1_226">
<rect width="342" height="337" fill="white" transform="translate(0 0.000610352)"/>
</clipPath>
</defs>
</svg>
